<svg fill="gainsboro" version="1.0" xmlns="http://www.w3.org/2000/svg"
 width="1263.000000pt" height="1262.000000pt" viewBox="0 0 1263.000000 1262.000000"
 preserveAspectRatio="xMidYMid meet" >

<g transform="translate(0.000000,1262.000000) scale(0.10000,-0.100000)" stroke="currentColor">
<path d="M6095 12613 c-594 -20 -1208 -130 -1771 -318 -833 -277 -1576 -709
-2224 -1291 -143 -129 -388 -375 -511 -514 -757 -854 -1280 -1924 -1479 -3026
-154 -854 -139 -1710 46 -2534 289 -1288 965 -2439 1954 -3324 1018 -912 2254
-1448 3640 -1580 558 -54 1237 -18 1795 95 549 110 1024 272 1541 524 636 310
1181 700 1689 1210 497 498 879 1031 1190 1660 144 290 226 488 325 785 585
1746 381 3666 -556 5230 -487 814 -1097 1462 -1884 2002 -1080 741 -2418 1126
-3755 1081z m-2075 -2697 c143 -10 325 -80 429 -163 190 -152 293 -372 293
-623 -1 -124 -24 -224 -77 -335 -75 -155 -190 -268 -353 -350 -235 -118 -583
-122 -821 -9 -225 106 -370 283 -428 522 -22 91 -22 276 1 366 67 275 266 478
551 561 84 24 247 45 305 39 14 -2 59 -5 100 -8z m4520 -2081 c269 -16 573
-121 805 -278 130 -88 293 -256 387 -397 215 -323 322 -693 348 -1202 5 -106
10 -770 10 -1475 l0 -1283 -760 0 -759 0 -4 1333 c-4 1434 -2 1374 -56 1571
-76 278 -251 462 -496 523 -104 25 -314 23 -418 -5 -224 -61 -417 -228 -527
-455 -80 -166 -74 -46 -77 -1590 l-4 -1377 -761 0 -761 0 6 212 c4 116 7 1137
7 2270 l0 2058 755 0 755 0 0 -317 0 -316 41 59 c294 419 678 639 1172 673 67
4 149 7 182 5 33 -2 103 -6 155 -9z m-3890 -2365 l0 -2270 -760 0 -760 0 0
2270 0 2270 760 0 760 0 0 -2270z"/>
</g>
</svg>
